<?xml version="1.0" encoding="utf-8"?>
<!-- Svg Vector Icons : http://www.onlinewebfonts.com/icon -->
<!DOCTYPE svg PUBLIC "-//W3C//DTD SVG 1.1//EN" "http://www.w3.org/Graphics/SVG/1.1/DTD/svg11.dtd">
<svg version="1.1" xmlns="http://www.w3.org/2000/svg" xmlns:xlink="http://www.w3.org/1999/xlink" x="0px" y="0px" viewBox="0 0 1000 1000" enable-background="new 0 0 1000 1000" xml:space="preserve">
<metadata> Svg Vector Icons : http://www.onlinewebfonts.com/icon </metadata>
<g><g transform="translate(0.000000,511.000000) scale(0.100000,-0.100000)"><path d="M4518.9,5000.8c-1124.2-130.2-2169.6-617-2937.4-1371C203.6,2282.7-248.8,346.1,375-1518.4c284.5-843.2,911.7-1717.2,1638.4-2269c1000.9-764.4,2323.9-1127.7,3537.2-980.3C6219-4685.5,6973-4428.5,7518-4102.8C8961-3235.6,9828.2-1768.7,9893.3-85.7c24,589.5-13.7,904.8-161.1,1473.8C9324.3,2934,8196.7,4167.9,6685.1,4726.6C6078.4,4949.4,5125.6,5069.3,4518.9,5000.8z M5790.5,4229.6c353-72,760.9-209.1,1045.4-349.6c284.5-143.9,757.5-452.4,863.7-565.5l75.4-78.8l-171.4-198.8c-209.1-233.1-572.4-534.7-915.2-757.5c-274.2-178.2-987.1-534.7-1069.4-534.7c-27.4,0-126.8,130.2-219.3,301.6c-253.7,445.6-781.5,1275.1-1090,1713.8c-167.9,239.9-260.5,404.5-243.3,421.6c17.1,17.1,178.2,54.8,356.5,82.3C4810.2,4322.1,5420.3,4308.4,5790.5,4229.6z M3518.1,3468.6c459.3-661.5,1244.2-1905.7,1244.2-1974.3c0-54.8-1213.4-305.1-1953.7-397.6C2171,1014.5,961.1,939.1,923.4,980.2c-48,48,133.7,599.8,325.6,987.1c380.5,767.8,935.7,1357.3,1682.9,1782.3c147.4,85.7,274.2,154.2,277.6,154.2C3213,3903.9,3353.5,3708.6,3518.1,3468.6z M8501.7,2413c171.4-253.6,380.5-682.1,476.4-976.9c102.8-305,205.7-853.5,205.7-1086.5V157.6l-126.8,24c-586.1,96-1028.3,133.7-1689.8,137.1c-404.5,3.4-819.2-3.4-918.6-10.3L6267,291.3l-181.7,407.9l-178.2,407.9l449,226.2c702.6,353,1350.5,822.6,1720.6,1251.1l161.1,191.9l61.7-78.8C8333.8,2652.9,8426.3,2526.1,8501.7,2413z M5286.7,469.5l157.7-349.6L5135.9,6.8c-935.7-339.3-1826.9-949.4-2533-1744.6c-257.1-284.4-661.5-819.2-695.8-915.1c-24-68.6-150.8,68.6-390.8,428.4C1084.5-1576.7,865.1-918.6,830.8-181.7l-20.6,418.2h305C2123,236.5,3799.1,466.1,4728,730c161.1,44.6,315.3,85.7,346.2,85.7C5111.9,819.1,5180.4,709.5,5286.7,469.5z M8498.3-411.3c215.9-37.7,452.4-85.7,521-106.3c120-34.3,126.8-44.6,106.2-147.4c-144-771.2-575.8-1600.7-1120.8-2159.4c-239.9-246.8-582.7-538.1-637.5-538.1c-13.7,0-34.3,75.4-48,164.5c-41.1,322.2-370.2,1566.4-572.4,2176.5c-113.1,339.3-195.4,627.3-181.7,637.5C6654.3-291.4,7932.7-311.9,8498.3-411.3z M5787.1-651.3c188.5-353.1,860.3-2748.9,860.3-3071.1c0-54.9-298.2-171.4-671.8-260.5c-1114-263.9-2293-61.7-3249.3,562.1c-161.1,106.2-294.8,205.6-294.8,216c0,41.1,174.8,329,318.8,527.8c198.8,270.8,716.4,795.2,1035.1,1045.4c308.5,243.4,712.9,500.4,1045.4,668.4c219.4,109.7,850,373.6,898,377C5742.5-586.2,5770-613.6,5787.1-651.3z"/></g></g>
</svg>