<?xml version="1.0" encoding="utf-8"?>
<!-- Svg Vector Icons : http://www.onlinewebfonts.com/icon -->
<!DOCTYPE svg PUBLIC "-//W3C//DTD SVG 1.1//EN" "http://www.w3.org/Graphics/SVG/1.1/DTD/svg11.dtd">
<svg version="1.1" xmlns="http://www.w3.org/2000/svg" xmlns:xlink="http://www.w3.org/1999/xlink" x="0px" y="0px" viewBox="0 0 1000 1000" enable-background="new 0 0 1000 1000" xml:space="preserve">
<metadata> Svg Vector Icons : http://www.onlinewebfonts.com/icon </metadata>
<g><path d="M639.1,6.9h-259c-34.3,0-71.2,4-110.5,12C230,28.3,191.7,48,154.9,78.3c-53.7,51.8-80.5,109.5-80.5,173.1c0,52.6,18.9,98.7,56.8,138.3C167.5,432.3,220,454,289,454.8c13,0,26.9-0.9,41.6-2.5c-2.4,6.8-5.1,14.2-7.9,22.2c-3.2,7.6-4.8,17.2-4.8,28.6c0,19,4.2,35.3,12.8,48.9c7.3,14,15.6,27.1,25,39.4c-30.2,0.8-68.2,4.6-113.9,11.3c-46.2,8-90.2,24-132.1,47.9c-37.4,22.3-63.2,48.1-77.4,77.5C17.3,757.6,10,784.4,10,808.3c0,49.2,22.6,91.4,67.7,126.8c44.8,37.8,112.5,57.1,203.2,58c108.4-1.7,191.3-27.6,248.7-77.7c55.4-48.5,83.2-104.1,83.2-166.8c-0.9-44.2-11-80-30.3-107.4c-20.6-27-44.5-51.5-71.8-73.9l-44-36c-6.3-6.3-12.9-13.7-19.6-22.1c-7.9-8.8-11.9-19.9-11.9-33.5c0-13.9,3.9-26.1,11.6-36.6c6.6-10.1,13.7-19.2,21.4-27.2c13.5-11.8,26.2-23.4,38.2-34.7c10.8-11.4,21-23.8,30.6-37.3c19.7-27.8,30-64.9,30.7-111.2c0-25.3-2.8-47.4-8.5-66.3c-6.9-19-14.9-35.4-23.8-49.3c-9.4-14.7-18.9-27.2-28.6-37.3c-10.2-9.7-19.3-17.1-27.4-22.1h79.8L639.1,6.9z M497.2,713.2c21.4,24.4,32.1,53,32.1,85.9c0,40.5-15.7,73.5-47,99.2c-32.1,26.1-78.7,39.6-139.8,40.5c-68.1-0.9-121.6-16-160.8-45.5c-41.2-29.5-61.8-67-61.8-112.5c0-23.2,4.7-43,14.2-59.4c8.2-15.6,18.3-28.7,30.3-39.2c12.4-10.1,24.6-17.9,36.5-23.4c11.9-5.1,21.2-8.9,27.8-11.4c28.1-8.4,55.5-14.5,82.3-18.3c27.2-2.5,44.1-3.3,50.7-2.5c11.1,0,20.8,0.4,29.1,1.2C439,661.6,474.5,690.1,497.2,713.2z M455.1,332.1c-3.1,17.3-10.2,34.2-21.1,50.6c-22.7,23.2-51.1,35.5-85.2,36.8c-27,0-51-8.2-71.9-24.7c-21-16.5-38.1-36.5-51.4-60.1c-27.4-50.7-41.1-99.4-41.1-146.2c-0.9-35.5,8.5-67.5,28.1-96.2c23.3-27.4,52.5-41.6,87.6-42.4c26.5,0.9,50,8.7,70.4,23.4c20,15.6,36.1,35.9,48.4,60.8c26.1,51.9,39.2,103.4,39.2,154.4C458,300.3,457,314.8,455.1,332.1z"/><path d="M854.1,148.4V12.5h-65.8v135.9H652.4v65.8h135.9v135.9h65.8V214.2H990v-65.8H854.1z"/></g>
</svg>