<?xml version="1.0" encoding="utf-8"?>
<!-- Designed by Vexels.com - 2016 All Rights Reserved - https://vexels.com/terms-and-conditions/  -->

<svg version="1.1" id="Layer_1" xmlns="http://www.w3.org/2000/svg" xmlns:xlink="http://www.w3.org/1999/xlink" x="0px" y="0px"
	 width="1200px" height="1200px" viewBox="0 0 1200 1200" enable-background="new 0 0 1200 1200" xml:space="preserve">
<g>
	<path fill="#FBC900" d="M600,1150c-303.272,0-549.99-246.729-549.99-550C50.01,296.728,296.728,50,600,50
		c303.271,0,549.99,246.728,549.99,550C1149.99,903.271,903.271,1150,600,1150z M600,88.606
		C318.031,88.606,88.616,318.021,88.616,600S318.031,1111.394,600,1111.394S1111.384,881.979,1111.384,600
		S881.969,88.606,600,88.606z"/>
	<path fill="#FBC900" d="M443.613,609.538c0,0,9.916,3.027,5.581,21.537l-11.142,36.977c0,0-7.351,6.909-18.512,1.291
		c0,0-89.748-32.132-71.557-182.052c0,0,17.344-127.374,143.869-175.047c126.471-47.656,233.939-0.849,246.946,6.04
		c12.989,6.947,127.357,76.327,116.95,212.327c-10.387,136.055-77.948,185.434-91.821,197.574
		c-13.894,12.12-136.914,82.313-205.38-7.795l-34.647,125.641c0,0-17.325,43.338-32.047,56.327c0,0-42.488-12.132-44.185-17.325
		c0,0-2.621-58.956,4.297-78.863l51.125-211.411c0,0-22.546-59.805-6.032-99.664c0,0,25.977-70.2,79.682-58.041
		c0,0,48.503,11.234,38.135,74.497l-28.598,99.647c0,0-12.987,46.806,8.69,65.855c0,0,36.383,46.806,100.494,3.496
		c0,0,45.94-18.228,64.131-137.798c0,0,14.759-106.592-43.32-150.789c0,0-65.864-63.233-185.453-24.231
		c0,0-90.125,31.15-108.316,127.364C422.502,495.095,405.798,550.723,443.613,609.538z"/>
</g>
</svg>
